<?xml version="1.0" encoding="UTF-8" standalone="no"?>
<!-- Created with Inkscape (http://www.inkscape.org/) -->

<svg
   width="210mm"
   height="297mm"
   viewBox="0 0 210 297"
   version="1.1"
   id="svg5"
   xml:space="preserve"
   inkscape:version="1.2.1 (9c6d41e410, 2022-07-14)"
   sodipodi:docname="logo1svg.svg"
   xmlns:inkscape="http://www.inkscape.org/namespaces/inkscape"
   xmlns:sodipodi="http://sodipodi.sourceforge.net/DTD/sodipodi-0.dtd"
   xmlns="http://www.w3.org/2000/svg"
   xmlns:svg="http://www.w3.org/2000/svg"><sodipodi:namedview
     id="namedview7"
     pagecolor="#ffffff"
     bordercolor="#000000"
     borderopacity="0.25"
     inkscape:showpageshadow="2"
     inkscape:pageopacity="0.0"
     inkscape:pagecheckerboard="0"
     inkscape:deskcolor="#d1d1d1"
     inkscape:document-units="mm"
     showgrid="false"
     showguides="true"
     inkscape:zoom="0.66142459"
     inkscape:cx="545.79162"
     inkscape:cy="613.82659"
     inkscape:window-width="1360"
     inkscape:window-height="705"
     inkscape:window-x="-8"
     inkscape:window-y="-8"
     inkscape:window-maximized="1"
     inkscape:current-layer="layer1-2"><sodipodi:guide
       position="87.604467,147.39237"
       orientation="1,0"
       id="guide1343"
       inkscape:locked="false" /></sodipodi:namedview><defs
     id="defs2" /><g
     inkscape:label="Camada 1"
     inkscape:groupmode="layer"
     id="layer1"><g
       inkscape:label="Camada 1"
       id="layer1-2"
       transform="translate(-32.468805,90.791257)"><path
         id="path10580"
         style="fill:#ffffff;fill-opacity:1;fill-rule:evenodd;stroke:none;stroke-width:2.35506;stroke-opacity:1"
         d="m 169.12783,21.368348 v 15.961816 c 0.0822,-0.01735 0.16642,-0.03326 0.24702,-0.05168 0.17289,-0.04199 0.3426,-0.08838 0.50901,-0.13901 0.1664,-0.05063 0.32945,-0.10557 0.48937,-0.164848 0.15992,-0.05928 0.31682,-0.122764 0.47026,-0.190686 0.15343,-0.06792 0.30367,-0.140474 0.45062,-0.217041 0.14695,-0.07657 0.29051,-0.157151 0.43098,-0.242362 0.14047,-0.08521 0.27787,-0.174861 0.41186,-0.268718 0.13399,-0.09386 0.26472,-0.192054 0.39222,-0.294555 0.12751,-0.102502 0.25156,-0.209247 0.37259,-0.320394 0.11115,-0.103737 0.21873,-0.209336 0.32246,-0.316777 0.10373,-0.10744 0.20341,-0.216484 0.29973,-0.327628 0.0963,-0.111144 0.18911,-0.22415 0.27802,-0.338998 0.0889,-0.114848 0.1743,-0.231813 0.25579,-0.350366 0.0815,-0.118553 0.15898,-0.23896 0.23306,-0.361218 0.0741,-0.122258 0.14468,-0.246107 0.21136,-0.372071 0.0667,-0.125963 0.12935,-0.253769 0.18862,-0.383439 0.0593,-0.12967 0.11505,-0.261431 0.16691,-0.394808 0.0543,-0.135846 0.10542,-0.276354 0.15297,-0.421163 0.0476,-0.144808 0.0915,-0.29375 0.13229,-0.447517 0.0408,-0.153768 0.0782,-0.312182 0.11214,-0.474907 0.034,-0.162725 0.0643,-0.330098 0.0915,-0.501778 0.0272,-0.17168 0.0509,-0.347501 0.0713,-0.528133 0.0204,-0.180632 0.0376,-0.36594 0.0512,-0.555522 0.0136,-0.189582 0.0237,-0.383864 0.0305,-0.582393 0.007,-0.19853 0.0103,-0.401274 0.0103,-0.608749 0,-0.158076 -0.004,-0.313712 -0.0109,-0.467155 -0.007,-0.153442 -0.0173,-0.304909 -0.0315,-0.453719 -0.0142,-0.148809 -0.0319,-0.295072 -0.0532,-0.439249 -0.0213,-0.144178 -0.0465,-0.286268 -0.0749,-0.425814 -0.0284,-0.139546 -0.0601,-0.276429 -0.0956,-0.411344 -0.0355,-0.134916 -0.0747,-0.267624 -0.11731,-0.397909 -0.0426,-0.130285 -0.0888,-0.2583 -0.13849,-0.383956 -0.0497,-0.125655 -0.10287,-0.248976 -0.15968,-0.370003 -0.0543,-0.123497 -0.11314,-0.244727 -0.17673,-0.363285 -0.0636,-0.118559 -0.13179,-0.234679 -0.20464,-0.3483 -0.0729,-0.11362 -0.15043,-0.224631 -0.23255,-0.333313 -0.0821,-0.108681 -0.16907,-0.214585 -0.26045,-0.318326 -0.0914,-0.103742 -0.18719,-0.205056 -0.28783,-0.303858 -0.10064,-0.0988 -0.20584,-0.195527 -0.31575,-0.289388 -0.1099,-0.09386 -0.22447,-0.184965 -0.34364,-0.273885 -0.11918,-0.08892 -0.24312,-0.175438 -0.37156,-0.259416 -0.1062,-0.07163 -0.21492,-0.140638 -0.32608,-0.206705 -0.11115,-0.06607 -0.22496,-0.129145 -0.34106,-0.189653 -0.11611,-0.06051 -0.23449,-0.118167 -0.35554,-0.173116 -0.12104,-0.05495 -0.24452,-0.107188 -0.37052,-0.15658 -0.12599,-0.04939 -0.25457,-0.09621 -0.3855,-0.140043 -0.13093,-0.04383 -0.26411,-0.08471 -0.39998,-0.12299 -0.13586,-0.03828 -0.27416,-0.07373 -0.41496,-0.106453 -0.1408,-0.03272 -0.28422,-0.06275 -0.42995,-0.08992 -0.15451,-0.03142 -0.32189,-0.05542 -0.48369,-0.08268 z"
         inkscape:export-filename="logo.svg"
         inkscape:export-xdpi="96"
         inkscape:export-ydpi="96" /><path
         id="path10696"
         style="fill:#ffffff;fill-opacity:1;fill-rule:evenodd;stroke:none;stroke-width:2.35506;stroke-opacity:1"
         d="m 169.12783,21.368348 c 0.1618,0.02726 0.32918,0.05126 0.48369,0.08268 0.14573,0.02717 0.28915,0.05719 0.42995,0.08992 0.1408,0.03272 0.2791,0.06818 0.41496,0.106453 0.13587,0.03828 0.26905,0.07916 0.39998,0.12299 0.13093,0.04384 0.25951,0.09065 0.3855,0.140043 0.126,0.04939 0.24948,0.101631 0.37052,0.15658 0.12105,0.05495 0.23943,0.112608 0.35554,0.173116 0.1161,0.06051 0.22991,0.123585 0.34106,0.189653 0.11116,0.06607 0.21988,0.135077 0.32608,0.206705 0.12844,0.08398 0.25238,0.170496 0.37156,0.259416 0.11917,0.08892 0.23374,0.180024 0.34364,0.273885 0.10991,0.09386 0.21511,0.190586 0.31575,0.289388 0.10064,0.0988 0.19646,0.200116 0.28783,0.303858 0.0914,0.103741 0.17834,0.209645 0.26045,0.318326 0.0821,0.108682 0.15969,0.219693 0.23255,0.333313 0.0729,0.113621 0.14104,0.229741 0.20464,0.3483 0.0636,0.118558 0.12239,0.239788 0.17673,0.363285 0.0568,0.121027 0.10997,0.244348 0.15968,0.370003 0.0497,0.125656 0.0959,0.253671 0.13849,0.383956 0.0426,0.130285 0.0818,0.262993 0.11731,0.397909 0.0355,0.134915 0.0672,0.271798 0.0956,0.411344 0.0284,0.139546 0.0536,0.281636 0.0749,0.425814 0.0213,0.144177 0.039,0.29044 0.0532,0.439249 0.0142,0.14881 0.0244,0.300277 0.0315,0.453719 0.007,0.153443 0.0109,0.309079 0.0109,0.467155 0,0.207475 -0.004,0.410219 -0.0103,0.608749 -0.007,0.198529 -0.0169,0.392811 -0.0305,0.582393 -0.0136,0.189582 -0.0308,0.37489 -0.0512,0.555522 -0.0204,0.180632 -0.0441,0.356453 -0.0713,0.528133 -0.0272,0.17168 -0.0575,0.339053 -0.0915,0.501778 -0.034,0.162725 -0.0714,0.321139 -0.11214,0.474907 -0.0408,0.153767 -0.0847,0.302709 -0.13229,0.447517 -0.0476,0.144809 -0.0986,0.285317 -0.15297,0.421163 -0.0519,0.133377 -0.10764,0.265138 -0.16691,0.394808 -0.0593,0.12967 -0.12194,0.257476 -0.18862,0.383439 -0.0667,0.125964 -0.13727,0.249813 -0.21136,0.372071 -0.0741,0.122258 -0.15156,0.242665 -0.23306,0.361218 -0.0815,0.118553 -0.16689,0.235518 -0.25579,0.350366 -0.0889,0.114848 -0.18171,0.227854 -0.27802,0.338998 -0.0963,0.111144 -0.196,0.220188 -0.29973,0.327628 -0.10373,0.107441 -0.21131,0.21304 -0.32246,0.316777 -0.12103,0.111147 -0.24508,0.217892 -0.37259,0.320394 -0.1275,0.102501 -0.25823,0.200699 -0.39222,0.294555 -0.13399,0.09386 -0.27139,0.183506 -0.41186,0.268718 -0.14047,0.08521 -0.28403,0.165795 -0.43098,0.242362 -0.14695,0.07657 -0.29719,0.149119 -0.45062,0.217041 -0.15344,0.06792 -0.31034,0.131409 -0.47026,0.190686 -0.15992,0.05928 -0.32297,0.114215 -0.48937,0.164848 -0.16641,0.05063 -0.33612,0.09702 -0.50901,0.13901 -0.0806,0.01842 -0.1648,0.03433 -0.24702,0.05168 z" /><path
         id="path10694"
         style="fill:#ffffff;fill-opacity:1;fill-rule:evenodd;stroke:none;stroke-width:2.35506;stroke-opacity:1"
         d="m 158.58584,21.283082 v 16.469279 h 4.6731 V 21.283082 Z" /><path
         id="path10692"
         style="fill:#ffffff;fill-opacity:1;fill-rule:evenodd;stroke:none;stroke-width:2.35506;stroke-opacity:1"
         d="m 158.58584,21.283082 h 4.6731 v 16.469279 h -4.6731 z" /><path
         id="path10690"
         style="fill:#ffffff;fill-opacity:1;fill-rule:evenodd;stroke:none;stroke-width:2.35506;stroke-opacity:1"
         d="M 152.71746,59.559815 V 21.283082 h -4.97075 a 25.739998,25.739998 0 0 0 -6.37791,16.95297 25.739998,25.739998 0 0 0 11.34866,21.323763 z" /><path
         id="path10688"
         style="fill:#ffffff;fill-opacity:1;fill-rule:evenodd;stroke:none;stroke-width:2.35506;stroke-opacity:1"
         d="M 163.25894,63.680494 V 60.199569 59.708126 42.643018 h -4.6731 v 17.546733 h -0.0274 v 2.311486 a 25.739998,25.739998 0 0 0 4.70049,1.179257 z" /><path
         id="path10686"
         style="fill:#ffffff;fill-opacity:1;fill-rule:evenodd;stroke:none;stroke-width:3.288;stroke-opacity:1"
         d="M 238.04162,131.01058 225.93073,102.9476 v 27.9975 h 0.0315 v 8.14594 a 25.739998,50.172847 0 0 0 12.07937,-8.08046 z" /><path
         id="path10684"
         style="fill:#ffffff;fill-opacity:1;fill-rule:evenodd;stroke:none;stroke-width:2.35506;stroke-opacity:1"
         d="m 184.89569,21.276737 v 0.0062 h -5.24981 c 0.11392,0.155421 0.22456,0.313688 0.33073,0.474906 0.10618,0.161218 0.2079,0.325391 0.30489,0.49351 0.0568,0.09509 0.11159,0.191573 0.16485,0.289905 0.0533,0.09833 0.1048,0.198668 0.15451,0.30024 0.0497,0.101571 0.098,0.20473 0.14418,0.309542 0.0462,0.104811 0.0902,0.211308 0.13281,0.31936 0.0426,0.108052 0.0834,0.21737 0.12247,0.328662 0.0391,0.111292 0.0766,0.224465 0.11214,0.338998 0.0355,0.114533 0.0693,0.230524 0.10129,0.348299 0.032,0.117774 0.062,0.237101 0.0904,0.358117 0.0284,0.121016 0.0552,0.24368 0.0801,0.367937 0.0249,0.124257 0.0479,0.250254 0.0692,0.377754 0.0213,0.1275 0.0406,0.256832 0.0584,0.387574 0.0178,0.130742 0.0339,0.26289 0.0481,0.396875 0.0142,0.133985 0.0266,0.269464 0.0372,0.406693 0.0106,0.137229 0.0198,0.276039 0.0269,0.416512 0.007,0.140473 0.0125,0.282614 0.016,0.426331 0.004,0.143716 0.005,0.289187 0.005,0.436149 0,0.198829 -0.003,0.395846 -0.009,0.590661 -0.006,0.194816 -0.0159,0.387457 -0.0284,0.57826 -0.0125,0.190801 -0.0277,0.379585 -0.0465,0.566373 -0.0188,0.186789 -0.0406,0.371714 -0.0656,0.554488 -0.025,0.182776 -0.0534,0.363324 -0.0848,0.542086 -0.0313,0.178762 -0.0653,0.355453 -0.10284,0.5302 -0.0375,0.174749 -0.0782,0.34758 -0.12195,0.518315 -0.0438,0.170735 -0.0911,0.339708 -0.14108,0.506429 -0.05,0.166721 -0.10289,0.331319 -0.15916,0.494027 -0.0563,0.162707 -0.11577,0.323447 -0.17829,0.482141 -0.0625,0.158694 -0.12811,0.315058 -0.19688,0.469739 -0.0688,0.154679 -0.14047,0.307703 -0.2155,0.45837 -0.075,0.150665 -0.15333,0.299314 -0.23461,0.445967 -0.0813,0.146653 -0.16568,0.290927 -0.25321,0.433565 -0.0875,0.142639 -0.17804,0.283572 -0.27182,0.422197 -0.0938,0.138625 -0.19091,0.275182 -0.29094,0.409794 -0.10003,0.133376 -0.20222,0.26449 -0.30695,0.393774 -0.10474,0.129286 -0.21198,0.256694 -0.32143,0.381889 -0.10944,0.125195 -0.22122,0.248382 -0.33538,0.369487 -0.11415,0.121104 -0.23099,0.24007 -0.34985,0.357084 -0.11886,0.117014 -0.23972,0.232276 -0.36329,0.345198 -0.12357,0.112924 -0.24947,0.223447 -0.37775,0.33228 -0.12828,0.108832 -0.25925,0.215652 -0.39223,0.320394 -0.13299,0.104741 -0.26797,0.20734 -0.40566,0.307991 -0.1377,0.100651 -0.27773,0.199546 -0.42013,0.296106 -0.1424,0.09656 -0.28748,0.191235 -0.43459,0.283704 -0.14711,0.09247 -0.29622,0.182923 -0.44804,0.271301 -0.15183,0.08838 -0.30597,0.174612 -0.4625,0.258899 -0.15653,0.08429 -0.31574,0.1663 -0.47698,0.246497 -0.16124,0.0802 -0.32497,0.158505 -0.49092,0.234611 -0.16595,0.0761 -0.33422,0.150194 -0.50488,0.222208 -0.17065,0.07202 -0.34346,0.141883 -0.51883,0.209807 l 13.03589,15.15463 a 25.739998,25.739998 0 0 0 7.17786,-17.812866 25.739998,25.739998 0 0 0 -6.39341,-16.959172 z" /><path
         id="path10680"
         style="fill:#ffffff;fill-opacity:1;fill-rule:evenodd;stroke:none;stroke-width:2.35506;stroke-opacity:1"
         d="m 167.10883,12.496021 a 25.739998,25.739998 0 0 0 -13.02969,3.560506 h 10.99778 c 0.35781,0 0.70617,0.0034 1.04799,0.0098 h 14.06168 a 25.739998,25.739998 0 0 0 -13.07776,-3.570325 z" /><rect
         style="fill:#550423;fill-rule:evenodd;stroke-width:2.35506;fill-opacity:0.77272725"
         id="rect418"
         width="123.20628"
         height="74.803818"
         x="58.870152"
         y="28.014805" /><g
         id="g416"
         transform="translate(-93.075608,-36.001836)"
         style="fill:#ffffff;fill-opacity:1"><g
           inkscape:label="Camada 1"
           id="layer1-0"
           transform="translate(45.794429,59.965714)"
           style="fill:#ffffff;fill-opacity:1"><path
             id="path10580-6"
             style="fill:#ffffff;fill-opacity:1;fill-rule:evenodd;stroke:none;stroke-width:2.35506;stroke-opacity:1"
             d="m 169.12783,21.368348 v 15.961816 c 0.0822,-0.01735 0.16642,-0.03326 0.24702,-0.05168 0.17289,-0.04199 0.3426,-0.08838 0.50901,-0.13901 0.1664,-0.05063 0.32945,-0.10557 0.48937,-0.164848 0.15992,-0.05928 0.31682,-0.122764 0.47026,-0.190686 0.15343,-0.06792 0.30367,-0.140474 0.45062,-0.217041 0.14695,-0.07657 0.29051,-0.157151 0.43098,-0.242362 0.14047,-0.08521 0.27787,-0.174861 0.41186,-0.268718 0.13399,-0.09386 0.26472,-0.192054 0.39222,-0.294555 0.12751,-0.102502 0.25156,-0.209247 0.37259,-0.320394 0.11115,-0.103737 0.21873,-0.209336 0.32246,-0.316777 0.10373,-0.10744 0.20341,-0.216484 0.29973,-0.327628 0.0963,-0.111144 0.18911,-0.22415 0.27802,-0.338998 0.0889,-0.114848 0.1743,-0.231813 0.25579,-0.350366 0.0815,-0.118553 0.15898,-0.23896 0.23306,-0.361218 0.0741,-0.122258 0.14468,-0.246107 0.21136,-0.372071 0.0667,-0.125963 0.12935,-0.253769 0.18862,-0.383439 0.0593,-0.12967 0.11505,-0.261431 0.16691,-0.394808 0.0543,-0.135846 0.10542,-0.276354 0.15297,-0.421163 0.0476,-0.144808 0.0915,-0.29375 0.13229,-0.447517 0.0408,-0.153768 0.0782,-0.312182 0.11214,-0.474907 0.034,-0.162725 0.0643,-0.330098 0.0915,-0.501778 0.0272,-0.17168 0.0509,-0.347501 0.0713,-0.528133 0.0204,-0.180632 0.0376,-0.36594 0.0512,-0.555522 0.0136,-0.189582 0.0237,-0.383864 0.0305,-0.582393 0.007,-0.19853 0.0103,-0.401274 0.0103,-0.608749 0,-0.158076 -0.004,-0.313712 -0.0109,-0.467155 -0.007,-0.153442 -0.0173,-0.304909 -0.0315,-0.453719 -0.0142,-0.148809 -0.0319,-0.295072 -0.0532,-0.439249 -0.0213,-0.144178 -0.0465,-0.286268 -0.0749,-0.425814 -0.0284,-0.139546 -0.0601,-0.276429 -0.0956,-0.411344 -0.0355,-0.134916 -0.0747,-0.267624 -0.11731,-0.397909 -0.0426,-0.130285 -0.0888,-0.2583 -0.13849,-0.383956 -0.0497,-0.125655 -0.10287,-0.248976 -0.15968,-0.370003 -0.0543,-0.123497 -0.11314,-0.244727 -0.17673,-0.363285 -0.0636,-0.118559 -0.13179,-0.234679 -0.20464,-0.3483 -0.0729,-0.11362 -0.15043,-0.224631 -0.23255,-0.333313 -0.0821,-0.108681 -0.16907,-0.214585 -0.26045,-0.318326 -0.0914,-0.103742 -0.18719,-0.205056 -0.28783,-0.303858 -0.10064,-0.0988 -0.20584,-0.195527 -0.31575,-0.289388 -0.1099,-0.09386 -0.22447,-0.184965 -0.34364,-0.273885 -0.11918,-0.08892 -0.24312,-0.175438 -0.37156,-0.259416 -0.1062,-0.07163 -0.21492,-0.140638 -0.32608,-0.206705 -0.11115,-0.06607 -0.22496,-0.129145 -0.34106,-0.189653 -0.11611,-0.06051 -0.23449,-0.118167 -0.35554,-0.173116 -0.12104,-0.05495 -0.24452,-0.107188 -0.37052,-0.15658 -0.12599,-0.04939 -0.25457,-0.09621 -0.3855,-0.140043 -0.13093,-0.04383 -0.26411,-0.08471 -0.39998,-0.12299 -0.13586,-0.03828 -0.27416,-0.07373 -0.41496,-0.106453 -0.1408,-0.03272 -0.28422,-0.06275 -0.42995,-0.08992 -0.15451,-0.03142 -0.32189,-0.05542 -0.48369,-0.08268 z"
             inkscape:export-filename="logo.svg"
             inkscape:export-xdpi="96"
             inkscape:export-ydpi="96" /><path
             id="path10696-4"
             style="fill:#ffffff;fill-opacity:1;fill-rule:evenodd;stroke:none;stroke-width:2.35506;stroke-opacity:1"
             d="m 169.12783,21.368348 c 0.1618,0.02726 0.32918,0.05126 0.48369,0.08268 0.14573,0.02717 0.28915,0.05719 0.42995,0.08992 0.1408,0.03272 0.2791,0.06818 0.41496,0.106453 0.13587,0.03828 0.26905,0.07916 0.39998,0.12299 0.13093,0.04384 0.25951,0.09065 0.3855,0.140043 0.126,0.04939 0.24948,0.101631 0.37052,0.15658 0.12105,0.05495 0.23943,0.112608 0.35554,0.173116 0.1161,0.06051 0.22991,0.123585 0.34106,0.189653 0.11116,0.06607 0.21988,0.135077 0.32608,0.206705 0.12844,0.08398 0.25238,0.170496 0.37156,0.259416 0.11917,0.08892 0.23374,0.180024 0.34364,0.273885 0.10991,0.09386 0.21511,0.190586 0.31575,0.289388 0.10064,0.0988 0.19646,0.200116 0.28783,0.303858 0.0914,0.103741 0.17834,0.209645 0.26045,0.318326 0.0821,0.108682 0.15969,0.219693 0.23255,0.333313 0.0729,0.113621 0.14104,0.229741 0.20464,0.3483 0.0636,0.118558 0.12239,0.239788 0.17673,0.363285 0.0568,0.121027 0.10997,0.244348 0.15968,0.370003 0.0497,0.125656 0.0959,0.253671 0.13849,0.383956 0.0426,0.130285 0.0818,0.262993 0.11731,0.397909 0.0355,0.134915 0.0672,0.271798 0.0956,0.411344 0.0284,0.139546 0.0536,0.281636 0.0749,0.425814 0.0213,0.144177 0.039,0.29044 0.0532,0.439249 0.0142,0.14881 0.0244,0.300277 0.0315,0.453719 0.007,0.153443 0.0109,0.309079 0.0109,0.467155 0,0.207475 -0.004,0.410219 -0.0103,0.608749 -0.007,0.198529 -0.0169,0.392811 -0.0305,0.582393 -0.0136,0.189582 -0.0308,0.37489 -0.0512,0.555522 -0.0204,0.180632 -0.0441,0.356453 -0.0713,0.528133 -0.0272,0.17168 -0.0575,0.339053 -0.0915,0.501778 -0.034,0.162725 -0.0714,0.321139 -0.11214,0.474907 -0.0408,0.153767 -0.0847,0.302709 -0.13229,0.447517 -0.0476,0.144809 -0.0986,0.285317 -0.15297,0.421163 -0.0519,0.133377 -0.10764,0.265138 -0.16691,0.394808 -0.0593,0.12967 -0.12194,0.257476 -0.18862,0.383439 -0.0667,0.125964 -0.13727,0.249813 -0.21136,0.372071 -0.0741,0.122258 -0.15156,0.242665 -0.23306,0.361218 -0.0815,0.118553 -0.16689,0.235518 -0.25579,0.350366 -0.0889,0.114848 -0.18171,0.227854 -0.27802,0.338998 -0.0963,0.111144 -0.196,0.220188 -0.29973,0.327628 -0.10373,0.107441 -0.21131,0.21304 -0.32246,0.316777 -0.12103,0.111147 -0.24508,0.217892 -0.37259,0.320394 -0.1275,0.102501 -0.25823,0.200699 -0.39222,0.294555 -0.13399,0.09386 -0.27139,0.183506 -0.41186,0.268718 -0.14047,0.08521 -0.28403,0.165795 -0.43098,0.242362 -0.14695,0.07657 -0.29719,0.149119 -0.45062,0.217041 -0.15344,0.06792 -0.31034,0.131409 -0.47026,0.190686 -0.15992,0.05928 -0.32297,0.114215 -0.48937,0.164848 -0.16641,0.05063 -0.33612,0.09702 -0.50901,0.13901 -0.0806,0.01842 -0.1648,0.03433 -0.24702,0.05168 z" /><path
             id="path10694-9"
             style="fill:#ffffff;fill-opacity:1;fill-rule:evenodd;stroke:none;stroke-width:2.35506;stroke-opacity:1"
             d="m 158.58584,21.283082 v 16.469279 h 4.6731 V 21.283082 Z" /><path
             id="path10692-1"
             style="fill:#ffffff;fill-opacity:1;fill-rule:evenodd;stroke:none;stroke-width:2.35506;stroke-opacity:1"
             d="m 158.58584,21.283082 h 4.6731 v 16.469279 h -4.6731 z" /><path
             id="path10690-7"
             style="fill:#ffffff;fill-opacity:1;fill-rule:evenodd;stroke:none;stroke-width:2.35506;stroke-opacity:1"
             d="M 152.71746,59.559815 V 21.283082 h -4.97075 a 25.739998,25.739998 0 0 0 -6.37791,16.95297 25.739998,25.739998 0 0 0 11.34866,21.323763 z" /><path
             id="path10688-6"
             style="fill:#ffffff;fill-opacity:1;fill-rule:evenodd;stroke:none;stroke-width:2.35506;stroke-opacity:1"
             d="M 163.25894,63.680494 V 60.199569 59.708126 42.643018 h -4.6731 v 17.546733 h -0.0274 v 2.311486 a 25.739998,25.739998 0 0 0 4.70049,1.179257 z" /><path
             id="path10686-0"
             style="fill:#ffffff;fill-opacity:1;fill-rule:evenodd;stroke:none;stroke-width:2.35506;stroke-opacity:1"
             d="M 181.23872,59.741716 169.12783,45.344662 v 14.363464 h 0.0315 v 4.179073 a 25.739998,25.739998 0 0 0 12.07937,-4.145483 z" /><path
             id="path10684-8"
             style="fill:#ffffff;fill-opacity:1;fill-rule:evenodd;stroke:none;stroke-width:2.35506;stroke-opacity:1"
             d="m 184.89569,21.276737 v 0.0062 h -5.24981 c 0.11392,0.155421 0.22456,0.313688 0.33073,0.474906 0.10618,0.161218 0.2079,0.325391 0.30489,0.49351 0.0568,0.09509 0.11159,0.191573 0.16485,0.289905 0.0533,0.09833 0.1048,0.198668 0.15451,0.30024 0.0497,0.101571 0.098,0.20473 0.14418,0.309542 0.0462,0.104811 0.0902,0.211308 0.13281,0.31936 0.0426,0.108052 0.0834,0.21737 0.12247,0.328662 0.0391,0.111292 0.0766,0.224465 0.11214,0.338998 0.0355,0.114533 0.0693,0.230524 0.10129,0.348299 0.032,0.117774 0.062,0.237101 0.0904,0.358117 0.0284,0.121016 0.0552,0.24368 0.0801,0.367937 0.0249,0.124257 0.0479,0.250254 0.0692,0.377754 0.0213,0.1275 0.0406,0.256832 0.0584,0.387574 0.0178,0.130742 0.0339,0.26289 0.0481,0.396875 0.0142,0.133985 0.0266,0.269464 0.0372,0.406693 0.0106,0.137229 0.0198,0.276039 0.0269,0.416512 0.007,0.140473 0.0125,0.282614 0.016,0.426331 0.004,0.143716 0.005,0.289187 0.005,0.436149 0,0.198829 -0.003,0.395846 -0.009,0.590661 -0.006,0.194816 -0.0159,0.387457 -0.0284,0.57826 -0.0125,0.190801 -0.0277,0.379585 -0.0465,0.566373 -0.0188,0.186789 -0.0406,0.371714 -0.0656,0.554488 -0.025,0.182776 -0.0534,0.363324 -0.0848,0.542086 -0.0313,0.178762 -0.0653,0.355453 -0.10284,0.5302 -0.0375,0.174749 -0.0782,0.34758 -0.12195,0.518315 -0.0438,0.170735 -0.0911,0.339708 -0.14108,0.506429 -0.05,0.166721 -0.10289,0.331319 -0.15916,0.494027 -0.0563,0.162707 -0.11577,0.323447 -0.17829,0.482141 -0.0625,0.158694 -0.12811,0.315058 -0.19688,0.469739 -0.0688,0.154679 -0.14047,0.307703 -0.2155,0.45837 -0.075,0.150665 -0.15333,0.299314 -0.23461,0.445967 -0.0813,0.146653 -0.16568,0.290927 -0.25321,0.433565 -0.0875,0.142639 -0.17804,0.283572 -0.27182,0.422197 -0.0938,0.138625 -0.19091,0.275182 -0.29094,0.409794 -0.10003,0.133376 -0.20222,0.26449 -0.30695,0.393774 -0.10474,0.129286 -0.21198,0.256694 -0.32143,0.381889 -0.10944,0.125195 -0.22122,0.248382 -0.33538,0.369487 -0.11415,0.121104 -0.23099,0.24007 -0.34985,0.357084 -0.11886,0.117014 -0.23972,0.232276 -0.36329,0.345198 -0.12357,0.112924 -0.24947,0.223447 -0.37775,0.33228 -0.12828,0.108832 -0.25925,0.215652 -0.39223,0.320394 -0.13299,0.104741 -0.26797,0.20734 -0.40566,0.307991 -0.1377,0.100651 -0.27773,0.199546 -0.42013,0.296106 -0.1424,0.09656 -0.28748,0.191235 -0.43459,0.283704 -0.14711,0.09247 -0.29622,0.182923 -0.44804,0.271301 -0.15183,0.08838 -0.30597,0.174612 -0.4625,0.258899 -0.15653,0.08429 -0.31574,0.1663 -0.47698,0.246497 -0.16124,0.0802 -0.32497,0.158505 -0.49092,0.234611 -0.16595,0.0761 -0.33422,0.150194 -0.50488,0.222208 -0.17065,0.07202 -0.34346,0.141883 -0.51883,0.209807 l 13.03589,15.15463 a 25.739998,25.739998 0 0 0 7.17786,-17.812866 25.739998,25.739998 0 0 0 -6.39341,-16.959172 z" /><path
             id="path10680-4"
             style="fill:#ffffff;fill-opacity:1;fill-rule:evenodd;stroke:none;stroke-width:2.35506;stroke-opacity:1"
             d="m 167.10883,12.496021 a 25.739998,25.739998 0 0 0 -13.02969,3.560506 h 10.99778 c 0.35781,0 0.70617,0.0034 1.04799,0.0098 h 14.06168 a 25.739998,25.739998 0 0 0 -13.07776,-3.570325 z" /></g></g><text
         xml:space="preserve"
         style="font-style:normal;font-variant:normal;font-weight:bold;font-stretch:normal;font-size:7.05556px;line-height:0.57694px;font-family:'Segoe UI';-inkscape-font-specification:'Segoe UI Bold';fill:#ffffff;fill-opacity:1;fill-rule:evenodd;stroke-width:2.35506"
         x="105.13077"
         y="97.08918"
         id="text1189"><tspan
           sodipodi:role="line"
           id="tspan1187"
           style="font-style:normal;font-variant:normal;font-weight:bold;font-stretch:normal;font-size:7.05556px;font-family:'Segoe UI';-inkscape-font-specification:'Segoe UI Bold';fill:#ffffff;fill-opacity:1;stroke-width:2.35506"
           x="105.13077"
           y="97.08918">Portfolio</tspan></text></g></g></svg>
